<svg width="250" height="85" viewBox="0 0 250 85" fill="none" xmlns="http://www.w3.org/2000/svg">
<ellipse cx="233.751" cy="35.7255" rx="16.2493" ry="16.1953" fill="white"/>
<path d="M96.2931 77.7433C93.9251 77.7433 91.776 77.2988 89.8459 76.4097C87.9158 75.5044 86.3831 74.2031 85.2477 72.5057C84.1124 70.7922 83.5447 68.723 83.5447 66.2982C83.5447 64.1643 83.9664 62.4346 84.8098 61.1091C85.6532 59.7673 86.7804 58.7166 88.1915 57.9568C89.6026 57.197 91.1597 56.6312 92.8627 56.2594C94.5819 55.8714 96.3093 55.5643 98.0448 55.338C100.315 55.047 102.156 54.8288 103.567 54.6833C104.995 54.5216 106.033 54.2549 106.682 53.8831C107.347 53.5113 107.679 52.8647 107.679 51.9432V51.7492C107.679 49.3568 107.022 47.4977 105.708 46.1722C104.411 44.8466 102.44 44.1838 99.7965 44.1838C97.0554 44.1838 94.9063 44.7819 93.3493 45.9782C91.7922 47.1744 90.6974 48.4515 90.0649 49.8094L84.6152 47.8695C85.5883 45.6064 86.8859 43.8443 88.5078 42.5834C90.146 41.3063 91.9301 40.4172 93.8602 39.9161C95.8065 39.3988 97.7204 39.1402 99.6018 39.1402C100.802 39.1402 102.181 39.2857 103.738 39.5766C105.311 39.8515 106.828 40.4253 108.287 41.2983C109.763 42.1712 110.988 43.4887 111.961 45.2507C112.934 47.0128 113.421 49.3729 113.421 52.3312V76.8704H107.679V71.8268H107.387C106.998 72.635 106.349 73.4999 105.441 74.4213C104.533 75.3427 103.324 76.1268 101.816 76.7734C100.307 77.42 98.4665 77.7433 96.2931 77.7433ZM97.1689 72.6027C99.4396 72.6027 101.354 72.1581 102.911 71.269C104.484 70.3799 105.668 69.2322 106.463 67.8258C107.274 66.4194 107.679 64.9403 107.679 63.3884V58.1508C107.436 58.4417 106.901 58.7085 106.073 58.951C105.262 59.1773 104.322 59.3793 103.251 59.5572C102.197 59.7188 101.167 59.8643 100.161 59.9936C99.172 60.1068 98.3692 60.2038 97.7528 60.2846C96.2606 60.4786 94.8658 60.7938 93.5682 61.2303C92.2869 61.6506 91.2489 62.2891 90.4541 63.1459C89.6756 63.9865 89.2863 65.1343 89.2863 66.5891C89.2863 68.5775 90.0243 70.0809 91.5003 71.0993C92.9924 72.1016 94.882 72.6027 97.1689 72.6027Z" fill="white"/>
<path d="M123.9 76.8704V39.6251H129.642V76.8704H123.9ZM126.82 33.4176C125.701 33.4176 124.736 33.0377 123.925 32.2779C123.13 31.5182 122.733 30.6048 122.733 29.5379C122.733 28.471 123.13 27.5576 123.925 26.7978C124.736 26.0381 125.701 25.6582 126.82 25.6582C127.939 25.6582 128.896 26.0381 129.691 26.7978C130.502 27.5576 130.907 28.471 130.907 29.5379C130.907 30.6048 130.502 31.5182 129.691 32.2779C128.896 33.0377 127.939 33.4176 126.82 33.4176Z" fill="white"/>
<path d="M154.269 77.6463C151.155 77.6463 148.406 76.8623 146.022 75.2943C143.637 73.71 141.772 71.4792 140.426 68.6017C139.08 65.7081 138.407 62.2891 138.407 58.3448C138.407 54.4327 139.08 51.038 140.426 48.1605C141.772 45.2831 143.645 43.0603 146.046 41.4923C148.446 39.9242 151.22 39.1402 154.366 39.1402C156.799 39.1402 158.721 39.5443 160.132 40.3526C161.56 41.1447 162.646 42.05 163.393 43.0684C164.155 44.0706 164.747 44.8951 165.169 45.5417H165.655V27.2101H171.397V76.8704H165.85V71.1478H165.169C164.747 71.8268 164.147 72.6835 163.368 73.7181C162.59 74.7365 161.479 75.6499 160.035 76.4582C158.592 77.2503 156.67 77.6463 154.269 77.6463ZM155.048 72.5057C157.351 72.5057 159.297 71.9076 160.887 70.7113C162.476 69.4989 163.684 67.8258 164.512 65.692C165.339 63.542 165.752 61.0606 165.752 58.2478C165.752 55.4673 165.347 53.0344 164.536 50.949C163.725 48.8475 162.525 47.2148 160.935 46.0509C159.346 44.8708 157.383 44.2808 155.048 44.2808C152.615 44.2808 150.587 44.9032 148.965 46.1479C147.36 47.3765 146.151 49.0496 145.34 51.1673C144.546 53.2688 144.148 55.629 144.148 58.2478C144.148 60.8989 144.554 63.3076 145.365 65.4737C146.192 67.6237 147.408 69.3373 149.014 70.6143C150.636 71.8753 152.647 72.5057 155.048 72.5057Z" fill="white"/>
<path d="M198.378 77.6463C194.777 77.6463 191.671 76.8542 189.06 75.27C186.465 73.6696 184.461 71.4388 183.05 68.5775C181.656 65.7 180.958 62.3538 180.958 58.5387C180.958 54.7237 181.656 51.3613 183.05 48.4515C184.461 45.5255 186.424 43.2462 188.938 41.6135C191.468 39.9646 194.42 39.1402 197.794 39.1402C199.74 39.1402 201.662 39.4635 203.56 40.1101C205.457 40.7567 207.185 41.8075 208.742 43.2624C210.299 44.7011 211.54 46.6086 212.464 48.9849C213.389 51.3613 213.851 54.2872 213.851 57.7628V60.1876H185.045V55.241H208.012C208.012 53.1395 207.59 51.2643 206.747 49.6154C205.92 47.9665 204.736 46.6652 203.195 45.7114C201.67 44.7577 199.87 44.2808 197.794 44.2808C195.507 44.2808 193.528 44.8466 191.857 45.9782C190.203 47.0936 188.93 48.5485 188.038 50.3428C187.146 52.1372 186.7 54.0609 186.7 56.1139V59.4117C186.7 62.2245 187.186 64.6089 188.159 66.5649C189.149 68.5048 190.519 69.9839 192.271 71.0023C194.023 72.0046 196.058 72.5057 198.378 72.5057C199.886 72.5057 201.248 72.2956 202.465 71.8753C203.698 71.4388 204.76 70.7922 205.652 69.9354C206.544 69.0625 207.233 67.9794 207.72 66.6861L213.267 68.238C212.683 70.1132 211.702 71.7621 210.323 73.1847C208.945 74.5911 207.242 75.6903 205.214 76.4824C203.187 77.2584 200.908 77.6463 198.378 77.6463Z" fill="white"/>
<path d="M17.4153 49.7322L3.15845 0.0718994H14.6661L22.9136 34.5771H23.3272L32.4263 0.0718994H42.2795L51.3542 34.6498H51.7922L60.0397 0.0718994H71.5473L57.2905 49.7322H47.0237L37.5354 17.2639H37.1461L27.6821 49.7322H17.4153Z" fill="white"/>
<path d="M67.4303 49.7323L81.842 0H102.333C106.272 0 109.42 0.720406 111.775 2.16122C114.135 3.58584 115.673 5.56898 116.391 8.11063C117.13 10.6361 117.021 13.5501 116.064 16.8526C115.107 20.1552 113.518 23.0692 111.299 25.5946C109.079 28.1201 106.353 30.087 103.122 31.4955C99.9072 32.9039 96.3049 33.6081 92.3149 33.6081H79.2544L81.6962 25.1818H92.9815C95.0948 25.1818 96.9371 24.8338 98.5083 24.1376C100.101 23.4253 101.416 22.4459 102.454 21.1993C103.513 19.9366 104.279 18.4877 104.753 16.8526C105.232 15.2014 105.303 13.7606 104.966 12.5302C104.651 11.2837 103.899 10.3204 102.709 9.64048C101.525 8.94436 99.8673 8.5963 97.737 8.5963H90.3319L78.4112 49.7323H67.4303Z" fill="white"/>
<path fill-rule="evenodd" clip-rule="evenodd" d="M39.6368 48.8477L43.434 69.5864L76.4894 56.8347L36.4888 82.6403L35.107 62.6296L2.08479 81.7764L39.6368 48.8477Z" fill="#FCD034"/>
<path d="M233.763 45.7929C235.018 45.7929 236.034 44.776 236.034 43.5217V35.4508C236.034 34.1965 235.018 33.1797 233.763 33.1797C232.509 33.1797 231.492 34.1965 231.492 35.4508V43.5217C231.492 44.776 232.509 45.7929 233.763 45.7929ZM233.751 30.3399C234.47 30.3399 235.089 30.0924 235.608 29.5974C236.126 29.0937 236.386 28.4901 236.386 27.7867C236.386 27.0746 236.126 26.471 235.608 25.976C235.089 25.4723 234.47 25.2204 233.751 25.2204C233.023 25.2204 232.404 25.4723 231.894 25.976C231.375 26.471 231.116 27.0746 231.116 27.7867C231.116 28.4901 231.375 29.0937 231.894 29.5974C232.404 30.0924 233.023 30.3399 233.751 30.3399Z" fill="#17213C"/>
</svg>
